<svg width="49" height="61" viewBox="0 0 49 61" fill="none" xmlns="http://www.w3.org/2000/svg">
<path d="M7.92541 45.5875H38.1105C38.1105 53.7678 31.3514 60.386 22.997 60.386C14.6425 60.386 7.92541 53.7678 7.92541 45.5875ZM34.5421 15.7028V29.8436L48.3542 15.7028H34.5421V15.7028ZM27.7829 15.7028H18.295V41.3124H27.7829V15.7028ZM14.1388 0H0.0327759V13.853H14.1388V0ZM12.1656 24.3764C12.1656 21.6222 9.89857 19.4024 7.08577 19.4024C4.27297 19.4024 2.00593 21.6222 2.00593 24.3764C2.00593 27.1305 4.27297 29.3503 7.08577 29.3503C9.89857 29.3503 12.1656 27.1305 12.1656 24.3764Z" fill="#F80A5B"/>
</svg>
