<svg width="145" height="37" viewBox="0 0 145 37" fill="none" xmlns="http://www.w3.org/2000/svg">
<g clip-path="url(#clip0_833_1661)">
<path d="M4.88162 0.0458984H31.2475C32.4951 0.0458984 33.6915 0.547081 34.5737 1.4392C35.4558 2.33131 35.9514 3.54127 35.9514 4.80291V31.4666C35.9514 32.7283 35.4558 33.9382 34.5737 34.8303C33.6915 35.7224 32.4951 36.2236 31.2475 36.2236H4.88162C3.63408 36.2236 2.43762 35.7224 1.55547 34.8303C0.673321 33.9382 0.177734 32.7283 0.177734 31.4666V4.80291C0.177734 3.54127 0.673321 2.33131 1.55547 1.4392C2.43762 0.547081 3.63408 0.0458984 4.88162 0.0458984Z" fill="#7B7B7B"/>
<path d="M21.7911 8.11987V6.87573C21.7911 6.46165 21.6284 6.06454 21.3389 5.77174C21.0494 5.47894 20.6567 5.31445 20.2473 5.31445H16.6289C16.2194 5.31445 15.8267 5.47894 15.5372 5.77174C15.2477 6.06454 15.085 6.46165 15.085 6.87573V8.14427C15.0842 8.17771 15.0909 8.21089 15.1047 8.2413C15.1185 8.2717 15.139 8.29852 15.1646 8.3197C15.1902 8.34088 15.2202 8.35587 15.2524 8.36352C15.2846 8.37117 15.3181 8.37127 15.3504 8.36382C16.3784 8.06949 17.442 7.92169 18.5104 7.92472C19.5372 7.92748 20.5591 8.06691 21.5499 8.33943C21.5803 8.34287 21.6112 8.33976 21.6404 8.33028C21.6696 8.3208 21.6964 8.30518 21.7192 8.28443C21.742 8.26369 21.7602 8.2383 21.7726 8.20994C21.785 8.18158 21.7913 8.15088 21.7911 8.11987ZM11.8767 9.75434L11.2496 9.12007C10.9565 8.82953 10.5624 8.6668 10.152 8.6668C9.74157 8.6668 9.34751 8.82953 9.05441 9.12007L8.30661 9.87632C8.01932 10.1727 7.8584 10.5712 7.8584 10.9863C7.8584 11.4013 8.01932 11.7999 8.30661 12.0963L8.90968 12.7061C8.95786 12.7477 9.02029 12.7685 9.08348 12.7639C9.14666 12.7594 9.20554 12.7298 9.24739 12.6817C9.60789 12.1825 10.0029 11.7097 10.4294 11.2668C10.8558 10.8228 11.3244 10.4225 11.8285 10.0715C11.8531 10.0545 11.8739 10.0326 11.8898 10.0072C11.9057 9.98172 11.9162 9.95324 11.9207 9.9235C11.9252 9.89376 11.9237 9.8634 11.9161 9.8343C11.9085 9.8052 11.8951 9.77799 11.8767 9.75434ZM18.4863 13.7063V19.0732C18.4866 19.1105 18.4962 19.147 18.5143 19.1795C18.5323 19.2119 18.5583 19.2392 18.5896 19.2587C18.621 19.2782 18.6567 19.2893 18.6935 19.291C18.7303 19.2927 18.7669 19.2849 18.7999 19.2684L23.5279 16.8045C23.5749 16.7744 23.6102 16.7288 23.6277 16.6755C23.6453 16.6222 23.6441 16.5643 23.6244 16.5117C23.1282 15.6314 22.418 14.8938 21.5611 14.3687C20.7041 13.8436 19.7288 13.5485 18.7275 13.5112C18.6985 13.5036 18.6681 13.5029 18.6388 13.5093C18.6095 13.5156 18.5821 13.5288 18.5586 13.5477C18.5352 13.5667 18.5165 13.5908 18.504 13.6184C18.4914 13.6459 18.4854 13.676 18.4863 13.7063ZM18.4863 26.6357C17.0799 26.6308 15.7065 26.2047 14.5394 25.411C13.3723 24.6173 12.464 23.4917 11.9291 22.1763C11.3942 20.8609 11.2567 19.4147 11.534 18.0203C11.8113 16.6259 12.4909 15.3459 13.4871 14.3419C14.4832 13.3379 15.7513 12.6549 17.131 12.3792C18.5107 12.1035 19.9403 12.2474 21.2392 12.7928C22.5381 13.3382 23.6481 14.2606 24.4289 15.4435C25.2098 16.6264 25.6266 18.0168 25.6266 19.4391C25.6202 21.35 24.8651 23.1804 23.5267 24.5293C22.1884 25.8782 20.3759 26.6357 18.4863 26.6357ZM18.4863 9.19325C16.4883 9.19807 14.5365 9.80165 12.8776 10.9277C11.2186 12.0538 9.92687 13.6519 9.16557 15.52C8.40427 17.3882 8.20755 19.4426 8.60026 21.4238C8.99298 23.4049 9.9575 25.224 11.372 26.651C12.7865 28.0781 14.5875 29.0492 16.5474 29.4416C18.5074 29.834 20.5384 29.6302 22.3839 28.8558C24.2294 28.0815 25.8065 26.7713 26.916 25.091C28.0256 23.4106 28.6178 21.4353 28.6178 19.4147C28.6114 16.7016 27.5411 14.1018 25.6418 12.1856C23.7425 10.2694 21.1692 9.19324 18.4863 9.19325Z" fill="#FAFAFA"/>
<path d="M71.5077 28.7568C64.5363 28.7812 64.5363 23.0728 64.5363 22.1702V0.751419L68.7819 0.0683594V21.3652C68.7819 21.8775 68.7819 25.1464 71.5077 25.1708V28.7568ZM54.2842 25.244C55.27 25.2694 56.2558 25.1958 57.2272 25.0244V20.6577C56.8948 20.5613 56.5563 20.4879 56.214 20.4382C55.7271 20.3612 55.2353 20.3204 54.7425 20.3162C54.2653 20.3093 53.7886 20.3501 53.3193 20.4382C52.8675 20.4979 52.4278 20.6297 52.0167 20.8285C51.6462 20.9988 51.329 21.2688 51.1001 21.6091C50.8565 21.9009 50.7353 22.2773 50.7623 22.6581C50.7623 23.6583 51.1001 24.2438 51.7514 24.6341C52.4027 25.0244 53.1987 25.244 54.2842 25.244ZM53.8983 9.65558C55.1024 9.6209 56.303 9.80261 57.4443 10.1923C58.3152 10.4829 59.1022 10.9855 59.7359 11.656C60.3201 12.3446 60.7336 13.1642 60.942 14.0467C61.1929 15.0181 61.3146 16.0189 61.3039 17.0229V28.0738C60.6445 28.2202 59.6555 28.3909 58.3368 28.5861C56.8581 28.7912 55.3667 28.889 53.8741 28.8788C52.8609 28.8789 51.8504 28.7726 50.8588 28.5617C50.0177 28.3858 49.2213 28.037 48.5189 27.5371C47.8709 27.0633 47.3489 26.4347 46.9992 25.7075C46.6099 24.7914 46.4206 23.8012 46.4444 22.8045C46.4193 21.9506 46.628 21.1064 47.0475 20.365C47.4517 19.6439 48.0228 19.0328 48.7119 18.5841C49.4568 18.1081 50.2831 17.7772 51.1483 17.6083C52.1005 17.4095 53.0707 17.3114 54.043 17.3156C54.5351 17.3132 55.0269 17.3458 55.5145 17.4132C56.0754 17.4715 56.6315 17.5693 57.1789 17.7059V16.9985C57.1851 16.5213 57.1283 16.0455 57.0101 15.5836C56.8975 15.1528 56.6915 14.7528 56.407 14.4126C56.0966 14.0529 55.6969 13.7834 55.2491 13.632C54.6732 13.4024 54.059 13.2864 53.4399 13.2904C52.5412 13.2974 51.6449 13.3872 50.7623 13.5588C50.0843 13.673 49.4152 13.836 48.7602 14.0467L48.2536 10.5338C49.0194 10.291 49.8014 10.1035 50.5935 9.97272C51.6814 9.75274 52.7888 9.64648 53.8983 9.65558ZM137.845 25.122C138.83 25.1474 139.816 25.0739 140.788 24.9024V20.5357L139.774 20.3162C139.288 20.2392 138.796 20.1984 138.303 20.1942C137.826 20.1873 137.349 20.2282 136.88 20.3162C136.428 20.376 135.988 20.5077 135.577 20.7065C135.207 20.8768 134.889 21.1468 134.66 21.4871C134.417 21.7789 134.296 22.1553 134.323 22.5361C134.323 23.5363 134.66 24.1218 135.312 24.5121C135.963 24.9024 136.783 25.122 137.845 25.122ZM137.483 9.558C138.687 9.52331 139.887 9.70503 141.029 10.0947C141.9 10.3853 142.687 10.888 143.32 11.5584C143.896 12.253 144.308 13.0703 144.527 13.9491C144.777 14.9205 144.899 15.9214 144.888 16.9253V27.9762C144.229 28.1226 143.24 28.2933 141.921 28.4885C140.443 28.6936 138.951 28.7914 137.459 28.7812C136.445 28.7813 135.435 28.675 134.443 28.4641C133.602 28.2882 132.806 27.9395 132.103 27.4395C131.455 26.9657 130.933 26.3372 130.584 25.6099C130.194 24.6939 130.005 23.7037 130.029 22.7069C130.004 21.8531 130.213 21.0088 130.632 20.2674C131.036 19.5464 131.607 18.9353 132.296 18.4866C133.041 18.0106 133.868 17.6796 134.733 17.5108C135.685 17.3119 136.655 17.2138 137.628 17.218C138.12 17.2156 138.611 17.2482 139.099 17.3156C139.652 17.3699 140.201 17.4677 140.739 17.6083V16.9009C140.745 16.4238 140.689 15.9479 140.57 15.486C140.458 15.0552 140.252 14.6552 139.967 14.315C139.657 13.9553 139.257 13.6858 138.81 13.5344C138.232 13.3137 137.618 13.2061 137 13.2172C136.102 13.2242 135.205 13.314 134.323 13.4856C133.645 13.5998 132.976 13.7628 132.321 13.9735L131.814 10.4606C132.58 10.2178 133.362 10.0303 134.154 9.89953C135.247 9.66033 136.364 9.54577 137.483 9.558ZM124.722 7.50882C125.232 7.50882 125.731 7.35573 126.156 7.06891C126.58 6.78209 126.911 6.37443 127.107 5.89747C127.302 5.4205 127.353 4.89566 127.253 4.38932C127.154 3.88298 126.908 3.41789 126.547 3.05283C126.186 2.68778 125.726 2.43918 125.226 2.33846C124.725 2.23774 124.206 2.28943 123.734 2.487C123.263 2.68456 122.859 3.01913 122.576 3.44838C122.292 3.87764 122.141 4.38231 122.141 4.89857C122.141 5.59085 122.413 6.25478 122.897 6.7443C123.381 7.23382 124.037 7.50882 124.722 7.50882ZM126.869 28.7568H122.599V10.2167L126.869 9.53361V28.7568ZM119.391 28.7568C112.419 28.7812 112.419 23.0728 112.419 22.1702V0.751419L116.665 0.0683594V21.3652C116.665 21.8775 116.665 25.1464 119.391 25.1708V28.7568ZM105.569 19.2672C105.569 17.4132 105.159 15.8519 104.387 14.7785C103.615 13.7051 102.505 13.1441 101.106 13.1441C99.7069 13.1441 98.5973 13.6808 97.8254 14.7785C97.0534 15.8763 96.6675 17.3888 96.6675 19.2672C96.6675 21.1456 97.0534 22.4141 97.8495 23.4875C98.6455 24.5609 99.731 25.122 101.13 25.122C102.529 25.122 103.639 24.5853 104.411 23.4875C105.183 22.3898 105.569 21.1456 105.569 19.2672ZM109.911 19.2672C109.923 20.5392 109.711 21.8032 109.284 22.9996C108.894 24.1327 108.287 25.1771 107.498 26.0734C106.728 26.929 105.781 27.6034 104.724 28.0494C103.574 28.4919 102.36 28.7392 101.13 28.7812C99.9066 28.7532 98.6978 28.5054 97.56 28.0494C96.5038 27.6034 95.5569 26.929 94.7859 26.0734C93.9897 25.1784 93.3751 24.1341 92.9767 22.9996C92.5303 21.8077 92.3094 20.5416 92.3254 19.2672C92.3003 17.8987 92.5125 16.5364 92.9526 15.242C93.3503 14.1091 93.9743 13.0711 94.7859 12.1927C95.5623 11.3494 96.5082 10.684 97.56 10.2411C99.8383 9.33062 102.374 9.33062 104.652 10.2411C105.71 10.672 106.659 11.3392 107.426 12.1927C108.222 13.0785 108.837 14.1149 109.235 15.242C109.706 16.5297 109.935 17.8947 109.911 19.2672ZM77.9243 19.2672C77.9243 21.0724 78.3102 23.0728 79.1063 23.9022C79.4965 24.316 79.9693 24.641 80.4934 24.8555C81.0175 25.0701 81.5808 25.1692 82.1457 25.1464C82.7923 25.1519 83.4356 25.0531 84.0514 24.8536C84.5613 24.7017 85.0482 24.4801 85.4988 24.195V13.5344C84.5793 13.3246 83.6425 13.2021 82.7005 13.1685C82.0252 13.1299 81.3505 13.256 80.7334 13.5362C80.1163 13.8164 79.5748 14.2425 79.1545 14.7785C78.3344 15.8031 77.9243 17.5839 77.9243 19.2672ZM89.7443 27.7322C89.7443 30.6596 88.9965 32.8064 87.525 34.1725C86.0536 35.5386 83.7619 36.2217 80.6984 36.2217C78.9141 36.1732 77.1378 35.9609 75.3914 35.5874L76.0668 32.1721C77.612 32.4472 79.1778 32.5859 80.7466 32.5868C82.4593 32.5868 83.6654 32.2453 84.3891 31.5379C85.1128 30.8304 85.4746 29.7814 85.4746 28.4153V27.7079C84.9357 27.9596 84.3794 28.1716 83.8102 28.3421C83.0429 28.5699 82.2456 28.6768 81.4462 28.6593C80.352 28.67 79.2649 28.4799 78.2379 28.0982C77.2999 27.7468 76.4511 27.1885 75.7533 26.4637C75.0335 25.6758 74.4832 24.7454 74.137 23.7315C73.7511 22.6337 73.5581 20.7065 73.5581 19.2672C73.5533 17.8621 73.7566 16.4642 74.1612 15.1201C74.54 14.0396 75.1494 13.0568 75.9462 12.2414C76.762 11.4183 77.7401 10.7783 78.8168 10.363C80.0476 9.88008 81.3562 9.63194 82.6764 9.63119C83.9799 9.64506 85.2795 9.77568 86.5601 10.0215C87.7904 10.2411 88.8518 10.4362 89.7202 10.6802V27.7322H89.7443Z" fill="#7B7B7B"/>
</g>
<defs>
<clipPath id="clip0_833_1661">
<rect width="144.711" height="36.1777" fill="white" transform="translate(0.177734 0.0458984)"/>
</clipPath>
</defs>
</svg>
