<svg width="102" height="62" viewBox="0 0 102 62" fill="none" xmlns="http://www.w3.org/2000/svg">
<g clip-path="url(#clip0_833_1665)">
<path d="M29.1618 22.799C29.136 23.8173 29.2604 24.8338 29.531 25.8151C29.8291 26.6539 30.188 27.4695 30.6049 28.255C30.755 28.487 30.8365 28.7574 30.8398 29.0344C30.8182 29.242 30.7495 29.4418 30.6389 29.6181C30.5283 29.7945 30.3788 29.9426 30.2022 30.0511L28.0879 31.4744C27.8327 31.6599 27.5294 31.7659 27.2153 31.7794C26.833 31.7529 26.4741 31.5838 26.2085 31.305C25.7562 30.8143 25.3516 30.2809 25.0003 29.7122C24.6647 29.1361 24.3291 28.4922 23.9599 27.7128C21.3422 30.8305 18.0532 32.3894 14.0931 32.3894C11.274 32.3894 9.02542 31.5761 7.38095 29.9494C5.73648 28.3228 4.89746 26.154 4.89746 23.4429C4.89746 20.7318 5.90428 18.2241 7.95148 16.4619C9.99868 14.6997 12.7171 13.8187 16.1738 13.8187C17.3643 13.8285 18.5528 13.919 19.7313 14.0898C20.973 14.2592 22.2483 14.5303 23.5907 14.8353V12.3615C23.5907 9.78597 23.0538 7.98989 22.0134 6.93936C20.973 5.88883 19.1272 5.3805 16.543 5.3805C15.3217 5.38047 14.1048 5.52837 12.9185 5.82105C11.6847 6.11786 10.4735 6.5029 9.2939 6.97325C8.91225 7.14568 8.51988 7.29284 8.11928 7.41379L7.58231 7.51546C7.11246 7.51546 6.87754 7.17658 6.87754 6.46492V4.80441C6.84098 4.39444 6.92256 3.98255 7.11246 3.61832C7.36573 3.30959 7.68773 3.06573 8.05216 2.90667C9.39826 2.2342 10.8174 1.72243 12.2808 1.3817C13.9909 0.938523 15.7508 0.72208 17.5163 0.737826C21.51 0.737826 24.4298 1.65281 26.3091 3.48277C28.1885 5.31273 29.0947 8.09156 29.0947 11.8193V22.799H29.1618ZM15.5362 27.95C16.7135 27.937 17.881 27.731 18.9929 27.34C20.2246 26.9097 21.3236 26.1621 22.1812 25.1712C22.7218 24.5466 23.1123 23.8044 23.3223 23.0024C23.5529 22.0371 23.6656 21.047 23.6579 20.0541V18.6308C22.6401 18.3806 21.6093 18.1883 20.5703 18.0547C19.5239 17.9206 18.4703 17.8527 17.4156 17.8514C15.167 17.8514 13.5225 18.2919 12.415 19.2069C11.3075 20.1219 10.7706 21.4096 10.7706 23.104C10.7706 24.7984 11.1733 25.8828 12.0123 26.6962C12.8513 27.5095 13.9924 27.95 15.5362 27.95ZM42.4854 31.6099C42.0337 31.6562 41.5807 31.5359 41.2101 31.2711C40.8595 30.9041 40.6157 30.4469 40.5053 29.9494L32.6185 3.75387C32.4656 3.31554 32.3642 2.86058 32.3165 2.39834C32.3006 2.2863 32.3103 2.17209 32.3446 2.06436C32.379 1.95662 32.4372 1.85821 32.5148 1.77656C32.5924 1.69492 32.6874 1.63219 32.7926 1.59313C32.8978 1.55407 33.0104 1.53971 33.122 1.55114H36.4109C37.0486 1.55114 37.4848 1.6528 37.7198 1.89002C37.9547 2.12724 38.1896 2.56779 38.391 3.21166L44.0292 25.6456L49.2646 3.21166C49.4324 2.5339 49.6338 2.09335 49.9023 1.89002C50.3051 1.64155 50.7735 1.52331 51.2447 1.55114H53.9296C54.5672 1.55114 55.0035 1.6528 55.272 1.89002C55.6238 2.24697 55.8481 2.7119 55.9096 3.21166L61.2122 25.9167L67.0182 3.21166C67.1251 2.71997 67.3564 2.26464 67.6894 1.89002C68.0792 1.64003 68.5375 1.52138 68.9983 1.55114H72.1194C72.2335 1.53399 72.35 1.54407 72.4596 1.58058C72.5691 1.61709 72.6687 1.67901 72.7502 1.76138C72.8318 1.84374 72.8931 1.94426 72.9293 2.05488C72.9654 2.1655 72.9754 2.28313 72.9584 2.39834C72.9505 2.58061 72.9281 2.76194 72.8913 2.94056C72.8388 3.22961 72.7601 3.5132 72.6564 3.78776L64.5683 29.9833C64.3669 30.6611 64.132 31.1016 63.8635 31.305C63.4841 31.5502 63.038 31.6687 62.5882 31.6438H59.702C59.0643 31.6438 58.628 31.5422 58.3596 31.305C58.0093 30.9333 57.7859 30.4584 57.7219 29.9494L52.52 8.09156L47.3517 29.9155C47.2733 30.4201 47.0518 30.8909 46.714 31.2711C46.3179 31.5354 45.8442 31.6549 45.3716 31.6099H42.4854ZM85.6108 32.5249C83.8703 32.5267 82.1356 32.322 80.4425 31.9149C78.7644 31.5083 77.4556 31.0677 76.583 30.5594C76.1509 30.3539 75.7889 30.0237 75.5426 29.6105C75.4124 29.3113 75.3438 28.9885 75.3412 28.6617V26.9334C75.3412 26.2217 75.6097 25.8828 76.1131 25.8828C76.3186 25.8838 76.5226 25.9181 76.7172 25.9845L77.5562 26.3234C78.7417 26.8498 79.9792 27.2474 81.2479 27.5095C82.5624 27.7788 83.9003 27.915 85.2416 27.9161C87.3559 27.9161 89.0004 27.5434 90.1415 26.7978C90.6873 26.4639 91.1361 25.9903 91.4426 25.425C91.749 24.8597 91.9022 24.2227 91.8866 23.5784C91.8991 23.1421 91.8255 22.7076 91.6699 22.3003C91.5143 21.893 91.28 21.5211 90.9805 21.2063C90.3764 20.5624 89.2353 19.9863 87.5909 19.4441L82.7246 17.9191C80.2746 17.1397 78.4624 15.9875 77.3549 14.4625C76.2739 13.0565 75.6839 11.3288 75.6768 9.54875C75.6503 8.23671 75.9626 6.94031 76.583 5.78716C77.1822 4.6969 78.0062 3.74927 78.9993 3.00833C80.0452 2.20866 81.2286 1.61122 82.4896 1.24615C83.8637 0.846508 85.2884 0.65241 86.7183 0.670048C87.47 0.664529 88.2212 0.709815 88.9669 0.805601L91.1483 1.17837L93.0612 1.72058C93.551 1.87349 94.0234 2.07794 94.4708 2.33057C94.8663 2.53128 95.2108 2.82115 95.4776 3.17777C95.6956 3.50764 95.8016 3.90011 95.7797 4.29608V5.88883C95.7797 6.60048 95.5112 6.97325 95.0078 6.97325C94.5607 6.92197 94.1276 6.78388 93.7325 6.56659C91.7045 5.66085 89.5061 5.20995 87.2888 5.24495C85.3759 5.24495 83.8656 5.54994 82.8253 6.19382C81.7849 6.8377 81.2479 7.82045 81.2479 9.20987C81.2378 9.65999 81.3223 10.1072 81.4959 10.5219C81.6694 10.9366 81.928 11.3095 82.2547 11.6159C82.9259 12.2598 84.1677 12.9037 85.9464 13.4798L90.712 15.0047C93.1284 15.7842 94.8735 16.8686 95.9139 18.258C96.939 19.6209 97.4825 21.2912 97.4577 23.0024C97.4751 24.3635 97.1762 25.7099 96.5851 26.9334C95.9895 28.0932 95.154 29.1102 94.1352 29.9155C93.0273 30.7865 91.762 31.4311 90.41 31.8133C88.8554 32.2958 87.2371 32.5358 85.6108 32.5249V32.5249Z" fill="#7B7B7B"/>
<path d="M91.9541 48.9938C80.9127 57.2286 64.8707 61.6002 51.0773 61.6002C31.7464 61.6002 14.3284 54.382 1.17262 42.3856C0.13224 41.4367 1.07194 40.149 2.31368 40.8945C16.5434 49.231 34.0956 54.2803 52.2519 54.2803C65.3371 54.2107 78.2806 51.5391 90.3432 46.4183C92.1891 45.5711 93.7664 47.6383 91.9541 48.9938ZM96.552 43.7072C95.1424 41.8773 87.2221 42.8261 83.6311 43.2667C82.5572 43.4022 82.3894 42.4534 83.3626 41.7417C89.672 37.2685 100.042 38.5562 101.25 40.0473C102.459 41.5384 100.915 52.0437 95.0082 57.0592C94.102 57.8386 93.2295 57.432 93.6322 56.4153C94.9746 53.0604 97.9615 45.5033 96.552 43.7072Z" fill="#7B7B7B"/>
</g>
<defs>
<clipPath id="clip0_833_1665">
<rect width="100.917" height="60.9309" fill="white" transform="translate(0.736328 0.669922)"/>
</clipPath>
</defs>
</svg>
