<svg width="1440" height="450" viewBox="0 0 1440 450" fill="none" xmlns="http://www.w3.org/2000/svg">
<g clip-path="url(#clip0)">
<path opacity="0.7" d="M441.465 450.267L314.952 221.445L107.456 360.961L233.969 589.783L441.465 450.267Z" fill="url(#paint0_linear)"/>
<path fill-rule="evenodd" clip-rule="evenodd" d="M1339.45 67.2606C1274.02 -57.7018 1131.6 -102.826 1021.36 -32.6363C911.115 37.5535 875.339 196.135 940.762 321.097L1339.45 67.2606Z" fill="url(#paint1_linear)"/>
<path opacity="0.75" d="M1270.88 575.445C1352.01 575.445 1417.78 502.915 1417.78 413.445C1417.78 323.975 1352.01 251.445 1270.88 251.445C1189.75 251.445 1123.98 323.975 1123.98 413.445C1123.98 502.915 1189.75 575.445 1270.88 575.445Z" fill="url(#paint2_linear)"/>
<path d="M112.787 53.3143L300.617 181.773L417.103 -25.3619L112.787 53.3143Z" fill="url(#paint3_linear)"/>
</g>
<defs>
<linearGradient id="paint0_linear" x1="274.08" y1="44.4398" x2="223.461" y2="898.404" gradientUnits="userSpaceOnUse">
<stop stop-color="#925694"/>
<stop offset="0.442708" stop-color="#B28CB4" stop-opacity="0"/>
</linearGradient>
<linearGradient id="paint1_linear" x1="1288" y1="-271.189" x2="694.531" y2="847.644" gradientUnits="userSpaceOnUse">
<stop stop-color="#915694"/>
<stop offset="0.442708" stop-color="#B28CB4" stop-opacity="0"/>
</linearGradient>
<linearGradient id="paint2_linear" x1="1160.1" y1="156.2" x2="1376.87" y2="558.982" gradientUnits="userSpaceOnUse">
<stop stop-color="#925694"/>
<stop offset="0.610692" stop-color="#B28CB4" stop-opacity="0"/>
</linearGradient>
<linearGradient id="paint3_linear" x1="229.273" y1="-153.82" x2="684.706" y2="102.301" gradientUnits="userSpaceOnUse">
<stop stop-color="#925694"/>
<stop offset="0.442708" stop-color="#B28CB4" stop-opacity="0"/>
</linearGradient>
<clipPath id="clip0">
<rect width="1440" height="450" fill="white" transform="translate(0 0.000488281)"/>
</clipPath>
</defs>
</svg>
