<svg width="280" height="378" viewBox="0 0 280 378" fill="none" xmlns="http://www.w3.org/2000/svg">
<path d="M180.446 184.497H98V118.342C98 109.176 105.169 102.003 114.33 102.003H180.844V184.497H180.446Z" fill="#00C4BA"/>
<path d="M82.4458 198.482H0V280.977H82.4458V198.482Z" fill="#02BF5C"/>
<path d="M82.4458 377.855H16.3298C7.56749 377.855 0 370.681 0 361.515V294.962H82.4458V377.855Z" fill="#EF65E6"/>
<path d="M279.022 102H196.577V184.494H279.022V102Z" fill="#02BF5C"/>
<path d="M180.623 198.482H98.1772V280.977H180.623V198.482Z" fill="#FFCE00"/>
<path d="M180.623 294.962H98.1775V377.456H180.623V294.962Z" fill="#F79303"/>
<path d="M279.611 82.4944H196.767V0H263.281C272.044 0 279.611 7.17343 279.611 16.3395V82.4944Z" fill="#EF65E6"/>
<path d="M278.811 198.482H196.365V280.977H278.811V198.482Z" fill="#F79303"/>
<path d="M262.879 377.855H196.365V294.962H278.811V361.515C279.209 370.681 272.04 377.855 262.879 377.855Z" fill="#ED322E"/>
</svg>
