<svg width="122" height="27" viewBox="0 0 122 27" fill="none" xmlns="http://www.w3.org/2000/svg">
<path d="M31.2659 11.6553H34.1939V24.0703H39.6972V26.7804H31.2659V11.6553Z" fill="#202020"/>
<path d="M51.515 16.562V26.7797H48.7634V25.4979C48.0578 26.5233 46.682 26.9628 45.5884 26.9628C43.0484 26.9628 40.7554 24.912 40.7554 21.6159C40.7554 18.3199 43.0484 16.3057 45.5884 16.3057C46.7173 16.3057 48.0578 16.7451 48.7634 17.7706V16.5254H51.515V16.562ZM48.6575 21.6525C48.6575 20.0778 47.3875 19.0157 46.1175 19.0157C44.7064 19.0157 43.5776 20.151 43.5776 21.6525C43.5776 23.1541 44.7417 24.2894 46.1175 24.2894C47.4581 24.2894 48.6575 23.1907 48.6575 21.6525Z" fill="#202020"/>
<path d="M65.097 21.6527C65.097 24.9488 62.804 26.9996 60.264 26.9996C59.1351 26.9996 57.7946 26.5602 57.089 25.5347V26.8165H54.3374V11.1055H57.089V17.8074C57.7946 16.782 59.1351 16.3425 60.264 16.3425C62.7687 16.3059 65.097 18.3567 65.097 21.6527ZM62.2396 21.6527C62.2396 20.1512 61.1107 19.0159 59.6996 19.0159C58.3943 19.0159 57.1596 20.078 57.1596 21.6527C57.1596 23.2275 58.359 24.2896 59.6996 24.2896C61.1107 24.2896 62.2396 23.1176 62.2396 21.6527Z" fill="#202020"/>
<path d="M83.5825 11.6553L78.6436 26.7804H76.3153L74.1986 18.5769L72.1173 26.7804H69.7889L64.8501 11.6553H68.0251L70.9884 21.5067L73.0345 13.7794H75.4334L77.4442 21.5067L80.4075 11.6553H83.5825Z" fill="#202020"/>
<path d="M82.2769 21.6525C82.2769 18.3931 84.7816 16.3057 87.5685 16.3057C90.3554 16.3057 92.8601 18.3931 92.8601 21.6525C92.8601 24.8753 90.3554 26.9994 87.5685 26.9994C84.7816 26.9994 82.2769 24.8753 82.2769 21.6525ZM90.0732 21.6525C90.0732 20.0412 88.9443 18.9791 87.5685 18.9791C86.1927 18.9791 85.0638 20.0412 85.0638 21.6525C85.0638 23.2273 86.1927 24.2894 87.5685 24.2894C88.9796 24.2894 90.0732 23.2273 90.0732 21.6525Z" fill="#202020"/>
<path d="M102.279 16.6353L101.644 19.382C101.044 19.0524 100.551 19.0157 100.233 19.0157C98.8219 19.0157 97.8342 20.3708 97.8342 23.3006V26.8163H95.0825V16.562H97.8342V18.7227C98.3986 17.0015 99.4922 16.3057 100.727 16.3057C101.256 16.3057 101.821 16.3789 102.279 16.6353Z" fill="#202020"/>
<path d="M110.006 26.7799L106.549 22.3486V26.7799H103.797V11.1055H106.549V19.6751L109.053 16.5622H112.616L108.736 21.0302L113.463 26.7433H110.006V26.7799Z" fill="#202020"/>
<path d="M113.745 23.4837H116.355C116.355 24.0696 116.849 24.7288 117.802 24.7288C118.613 24.7288 119.213 24.3626 119.213 23.7767C119.213 23.3372 118.86 23.1174 118.119 22.9343L116.814 22.6047C114.274 21.9089 113.957 20.444 113.957 19.3453C113.957 17.7706 115.544 16.3057 117.837 16.3057C119.636 16.3057 121.753 17.2212 121.718 19.6383H119.072C119.072 18.9425 118.507 18.5763 117.872 18.5763C117.237 18.5763 116.743 18.9059 116.743 19.4186C116.743 19.8947 117.167 20.151 117.731 20.2975L119.354 20.737C121.718 21.3962 122 22.9343 122 23.7767C122 25.9374 119.883 26.9628 117.872 26.9628C115.756 26.9628 113.745 25.7543 113.745 23.4837Z" fill="#202020"/>
<path d="M7.81333 8.41462H0V2.14516C0 1.2765 0.67942 0.59668 1.54757 0.59668H7.85107V8.41462H7.81333Z" fill="#00C4BA"/>
<path d="M7.81333 9.74023H0V17.5582H7.81333V9.74023Z" fill="#02BF5C"/>
<path d="M7.81333 26.7395H1.54757C0.717165 26.7395 0 26.0597 0 25.191V18.8838H7.81333V26.7395Z" fill="#EF65E6"/>
<path d="M17.1554 0.59668H9.34204V8.41462H17.1554V0.59668Z" fill="#02BF5C"/>
<path d="M17.1175 9.74023H9.3042V17.5582H17.1175V9.74023Z" fill="#FFCE00"/>
<path d="M17.1175 18.8838H9.3042V26.7017H17.1175V18.8838Z" fill="#F79303"/>
<path d="M26.4985 8.41462H18.6475V0.59668H24.951C25.7814 0.59668 26.4985 1.2765 26.4985 2.14516V8.41462Z" fill="#EF65E6"/>
<path d="M26.4227 9.74023H18.6094V17.5582H26.4227V9.74023Z" fill="#F79303"/>
<path d="M24.9129 26.7395H18.6094V18.8838H26.4227V25.191C26.4604 26.0597 25.781 26.7395 24.9129 26.7395Z" fill="#ED322E"/>
</svg>
