<svg width="295" height="55" viewBox="0 0 295 55" fill="none" xmlns="http://www.w3.org/2000/svg">
<g clip-path="url(#clip0_714_1615)">
<path d="M157.51 41.8799H152.024V54.0739H157.51V41.8799Z" fill="white"/>
<path d="M265.105 41.8799H259.62V54.0563H265.105V41.8799Z" fill="white"/>
<path d="M221.312 46.2327C219.337 45.749 218.065 45.749 218.065 45.0014C218.065 44.2539 218.591 44.2539 219.644 44.2539C221.646 44.3187 223.615 44.7821 225.437 45.6171V42.5829C223.945 41.8353 221.795 41.3076 218.855 41.3076C213.018 41.3076 212.272 43.8141 212.272 45.0894C212.272 47.2441 213.589 48.2555 215.783 49.047C217.977 49.8386 220.522 49.6187 220.522 50.718C220.522 51.0259 220.083 51.3776 219.03 51.3776C216.815 51.3143 214.653 50.6781 212.755 49.5307V52.9167C214.785 53.895 216.998 54.4344 219.249 54.4998C223.769 54.4998 226.183 52.6969 226.183 50.2783C226.183 47.8597 224.34 46.9803 221.312 46.2327Z" fill="white"/>
<path d="M289.107 46.2327C287.133 45.749 285.86 45.749 285.86 45.0014C285.86 44.2539 286.431 44.2539 287.484 44.2539C289.485 44.3233 291.453 44.7865 293.276 45.6171V42.5829C291.784 41.8353 289.634 41.3076 286.694 41.3076C280.858 41.3076 280.068 43.8141 280.068 45.0894C280.068 47.2441 281.384 48.2555 283.578 49.047C285.772 49.8386 288.317 49.6187 288.317 50.718C288.317 51.0259 287.922 51.3776 286.825 51.3776C284.624 51.3148 282.476 50.6782 280.594 49.5307V52.9167C282.623 53.9 284.836 54.4396 287.089 54.4998C291.565 54.4998 294.022 52.6969 294.022 50.2783C294.022 47.8597 292.179 46.9803 289.107 46.2327Z" fill="white"/>
<path d="M204.901 49.4874C204.901 50.4548 203.848 51.2463 202.838 51.2463C201.829 51.2463 200.776 50.4548 200.776 49.4874V41.8799H195.466V49.1796C195.466 52.3017 197.485 54.4125 202.838 54.4125C208.192 54.4125 210.21 52.3017 210.21 49.1796V41.8799H204.901V49.4874Z" fill="white"/>
<path d="M267.431 54.0607H278.05V51.4662H272.652V48.8717H277.26V46.3652H272.652V44.4743H278.05V41.8799H267.431V54.0607Z" fill="white"/>
<path d="M227.631 44.6063H231.185V54.0607H236.714V44.6063H240.268V41.8799H227.631V44.6063Z" fill="white"/>
<path d="M170.41 47.5085L165.934 41.8799H159.835V54.0607H165.408V48.1242L169.971 54.0607H175.983V41.8799H170.41V47.5085Z" fill="white"/>
<path d="M136.535 46.4971L133.946 41.8799H128.855L133.77 49.7512V54.0607H139.343V49.6633L144.17 41.8799H139.08L136.535 46.4971Z" fill="white"/>
<path d="M120.694 49.5753L118.105 41.8799H112.971L117.403 54.0607H124.029L128.461 41.8799H123.327L120.694 49.5753Z" fill="white"/>
<path d="M103.887 41.8799L99.4116 54.0607H104.633L105.028 52.6095H109.065L109.46 54.0607H114.682L110.206 41.8799H103.887ZM105.687 50.2349L107.047 45.5737L108.407 50.2349H105.687Z" fill="white"/>
<path d="M87.9146 54.0607H98.5337V51.4662H93.1363V48.8717H97.7877V46.3652H93.1363V44.4743H98.5337V41.8799H87.9146V54.0607Z" fill="white"/>
<path d="M186.032 41.8799H178.309V54.0607H185.768C191.122 54.0607 193.755 51.5102 193.755 47.9483C193.755 44.3864 190.464 41.8799 186.032 41.8799ZM185.11 50.6307H183.881V44.8261H184.935C186.778 44.8261 187.831 46.0134 187.831 47.8603C187.82 48.5841 187.531 49.2758 187.024 49.7918C186.518 50.3077 185.832 50.6082 185.11 50.6307Z" fill="white"/>
<path d="M257.382 45.6616C257.382 43.1991 255.495 41.8799 253.213 41.8799H242.375V54.0607H248.255V50.103L251.897 54.0607H258.435L253.564 49.2675C255.67 49.1796 257.382 47.7724 257.382 45.6616ZM250.141 47.2887H248.255V44.2105H250.273C250.477 44.2101 250.678 44.2515 250.865 44.3321C251.052 44.4127 251.221 44.5307 251.36 44.679C251.5 44.8273 251.608 45.0027 251.678 45.1944C251.747 45.386 251.777 45.5899 251.765 45.7936C251.766 46.0015 251.723 46.2073 251.64 46.3979C251.557 46.5885 251.435 46.7596 251.283 46.9003C251.13 47.041 250.949 47.1482 250.753 47.2151C250.556 47.282 250.348 47.307 250.141 47.2887Z" fill="white"/>
<path d="M80.0603 46.1454H76.1549V41.8799H70.626V54.0607H76.1549V49.6633H80.0603V54.0607H85.5893V41.8799H80.0603V46.1454Z" fill="white"/>
<path d="M113.672 18.3535H104.15V38.3089H113.672V18.3535Z" fill="white"/>
<path d="M92.4785 38.3177H101.386L98.6218 18.3535H89.4508L86.0281 25.3454L82.5615 18.3535H73.3905L70.626 38.3177H79.5337L80.3236 29.9626L86.0281 38.3177L91.6887 29.9626L92.4785 38.3177Z" fill="white"/>
<path d="M121.966 38.3177H131.137V23.8063H136.666V18.3535H116.437V23.8063H121.966V38.3177Z" fill="white"/>
<path d="M161.459 32.2935C161.459 28.5997 158.255 26.6649 153.955 25.6535C150.708 24.9499 148.514 25.1698 148.514 23.9825C148.514 22.7952 149.391 23.147 150.796 23.147C153.867 23.147 158.168 24.5981 160.8 26.3131V20.5525C157.401 18.8652 153.667 17.9636 149.874 17.9141C142.853 17.9141 139.036 20.2887 139.036 24.2023C139.036 28.116 141.186 28.9075 144.74 30.2707C148.294 31.6339 151.542 31.0623 151.542 32.3375C151.542 32.8212 151.41 33.217 149.786 33.217C146.057 33.217 142.458 31.7219 139.869 30.2268V36.1632C143.229 37.725 146.874 38.5782 150.576 38.6698C155.096 38.6698 161.459 37.6144 161.459 32.2935Z" fill="white"/>
<path d="M227.806 18.3535H218.284V38.3133H227.806V18.3535Z" fill="white"/>
<path d="M294.022 18.3535H284.5V38.3133H294.022V18.3535Z" fill="white"/>
<path d="M236.758 30.2707C240.882 31.8538 243.559 31.0623 243.559 32.3375C243.559 32.8212 243.384 33.217 241.76 33.217C238.03 33.217 234.432 31.7219 231.843 30.2268V36.1632C235.219 37.7249 238.877 38.5779 242.594 38.6698C247.07 38.6698 253.432 37.6144 253.432 32.2935C253.432 28.5997 250.229 26.6649 245.929 25.6535C242.682 24.9499 240.531 25.1698 240.531 23.9825C240.531 22.7952 241.365 23.147 242.769 23.147C245.841 23.147 250.185 24.5981 252.774 26.3131V20.5525C249.375 18.8652 245.641 17.9636 241.848 17.9141C234.871 17.9141 231.053 20.2887 231.053 24.2023C231.053 28.116 233.159 28.9075 236.758 30.2707Z" fill="white"/>
<path d="M188.972 30.3584V18.3535H179.669V30.5783C179.669 30.9747 179.591 31.3671 179.438 31.7328C179.285 32.0985 179.062 32.4301 178.78 32.7084C178.498 32.9866 178.164 33.206 177.797 33.3536C177.43 33.5013 177.037 33.5743 176.642 33.5685C176.248 33.5744 175.857 33.5011 175.493 33.353C175.128 33.2048 174.797 32.9847 174.518 32.7059C174.24 32.427 174.021 32.095 173.873 31.7296C173.725 31.3641 173.652 30.9726 173.658 30.5783V18.3535H164.355V30.3584C164.355 36.163 170.454 38.6695 176.642 38.6695C182.829 38.6695 188.972 36.163 188.972 30.3584Z" fill="white"/>
<path d="M207.972 38.3177C213.457 38.3177 215.3 35.7232 215.3 32.9968C215.3 30.2704 213.808 28.6874 211.702 27.8959C212.457 27.5078 213.089 26.9142 213.523 26.1831C213.958 25.452 214.178 24.6131 214.159 23.7623C214.159 20.5522 211.263 18.3535 208.191 18.3535H192.263V38.3177H207.972ZM201.916 22.575H204.242C204.457 22.563 204.672 22.5951 204.874 22.6693C205.075 22.7435 205.26 22.8582 205.416 23.0064C205.572 23.1546 205.697 23.3332 205.781 23.5312C205.866 23.7293 205.91 23.9426 205.91 24.1581C205.904 24.3641 205.857 24.5669 205.772 24.7544C205.687 24.942 205.565 25.1105 205.413 25.2499C205.262 25.3894 205.084 25.4969 204.891 25.5662C204.697 25.6354 204.491 25.665 204.286 25.6532H201.916V22.575ZM204.286 33.2607H201.916V30.2265H204.374C204.579 30.2206 204.784 30.2561 204.975 30.3308C205.166 30.4055 205.341 30.5179 205.488 30.6614C205.635 30.8049 205.753 30.9766 205.832 31.1662C205.912 31.3559 205.953 31.5597 205.953 31.7656C205.948 31.9756 205.9 32.1822 205.812 32.3729C205.724 32.5636 205.598 32.7342 205.442 32.8743C205.286 33.0143 205.103 33.1209 204.904 33.1873C204.705 33.2538 204.495 33.2787 204.286 33.2607Z" fill="white"/>
<path d="M271.511 38.3177H280.99V18.3535H271.511V25.3893H266.114V18.3535H256.636V38.3177H266.114V31.1939H271.511V38.3177Z" fill="white"/>
<path d="M30.8701 36.2068L41.182 18.3534L30.8701 0.5L20.6021 18.3534L30.8701 36.2068Z" fill="#E31F26"/>
<path d="M30.8701 36.207L41.1821 54.0605H61.7182L51.4501 36.207H30.8701Z" fill="#E31F26"/>
<path d="M30.87 36.207H10.29L0.0219727 54.0605H20.602L30.87 36.207Z" fill="#E31F26"/>
</g>
<defs>
<clipPath id="clip0_714_1615">
<rect width="294" height="54" fill="white" transform="translate(0.0219727 0.5)"/>
</clipPath>
</defs>
</svg>
