<svg width="32" height="17" viewBox="0 0 32 17" fill="none" xmlns="http://www.w3.org/2000/svg">
<mask id="mask0_833_1528" style="mask-type:alpha" maskUnits="userSpaceOnUse" x="0" y="0" width="32" height="17">
<path d="M31.75 16.4212C31.75 7.67087 24.6969 0.579102 16.0057 0.579102C7.31446 0.579102 0.25 7.67087 0.25 16.4212H6.77979C6.77979 11.2968 10.9093 7.14471 16.0057 7.14471C21.1021 7.14471 25.2316 11.2968 25.2316 16.4212H31.75Z" fill="white"/>
</mask>
<g mask="url(#mask0_833_1528)">
<path d="M16.1843 16.2378L2.09223 3.25098C-2.84462 7.15624 -4.01742 13.5361 -3.98672 16.2378H16.1843Z" fill="#ED322E"/>
<path d="M16.257 16.4002L16.5525 -3.19682C10.2734 -3.63915 3.1539 0.788688 1.35565 2.8053L16.257 16.4002Z" fill="#F79303"/>
<path d="M16.2206 16.1746L15.925 -3.4224C22.2042 -3.86473 29.3236 0.563102 31.1219 2.57971L16.2206 16.1746Z" fill="#FFCE00"/>
<path d="M15.9084 16.2378L30.0005 3.25098C34.9374 7.15624 36.1102 13.5361 36.0795 16.2378H15.9084Z" fill="#02BF5C"/>
</g>
</svg>
