<svg width="105" height="74" viewBox="0 0 105 74" fill="none" xmlns="http://www.w3.org/2000/svg">
<g clip-path="url(#clip0_833_1670)">
<path d="M24.6306 73.3126C22.1426 72.2321 21.4203 70.3111 21.5808 67.7499C21.7012 65.6288 21.5808 63.5078 21.621 61.4268C21.7012 58.7054 23.2662 57.1847 25.8345 57.2647C28.2823 57.3448 29.727 58.9456 29.727 61.5468C29.727 63.6679 29.6066 65.7889 29.7671 67.8699C29.9677 70.5112 29.125 72.3521 26.5969 73.3126C25.9549 73.3126 25.3128 73.3126 24.6306 73.3126ZM23.7077 65.2286C23.6675 65.2286 23.6675 65.2286 23.7077 65.2286C23.6675 66.5493 23.6675 67.8699 23.6675 69.1906C23.6675 70.4312 24.3096 71.2316 25.5536 71.2716C26.8778 71.3516 27.7607 70.6313 27.8008 69.3106C27.8811 66.5493 27.8811 63.7479 27.7607 60.9866C27.7205 59.7059 26.7574 58.9456 25.5937 59.2657C24.8313 59.4658 23.9083 60.3462 23.7478 61.1066C23.4669 62.3872 23.7077 63.828 23.7077 65.2286Z" fill="#7B7B7B"/>
<path d="M59.8235 73.3125C57.2954 72.312 56.4928 70.4311 56.6935 67.8298C56.854 65.6688 56.6935 63.4677 56.7336 61.2666C56.7737 58.7454 58.2184 57.3047 60.6662 57.2246C63.1141 57.1446 64.8396 58.7053 64.8797 61.2266C64.96 63.8679 64.8797 66.5092 64.9199 69.1505C64.9199 71.3115 63.5555 72.4321 61.7898 73.2725C61.1478 73.3125 60.4656 73.3125 59.8235 73.3125ZM58.6598 65.1885C58.6598 66.5092 58.419 67.9099 58.74 69.1505C58.9407 69.9509 59.8636 70.9914 60.6261 71.1915C61.8701 71.5516 62.793 70.6312 62.8332 69.3105C62.9134 66.5892 62.9134 63.9079 62.8332 61.1866C62.793 59.986 62.151 59.1856 60.8267 59.1856C59.4222 59.1456 58.74 59.986 58.6598 61.2666C58.6197 62.5472 58.6598 63.8679 58.6598 65.1885Z" fill="#7B7B7B"/>
<path d="M4.24489 73.3126C3.20154 72.3522 1.95755 71.5518 1.23523 70.4312C0.633299 69.4708 0.9142 68.2702 2.76012 68.5903C2.84038 68.8705 2.80025 69.3107 3.04102 69.5508C3.60283 70.1111 4.20476 70.9115 4.88695 71.0315C5.48888 71.1516 6.61248 70.6313 6.81313 70.1511C7.09403 69.3907 7.0539 68.1901 6.61248 67.5898C5.85004 66.6294 4.6863 66.0291 3.64296 65.3487C2.15819 64.3482 0.994458 63.2277 1.07472 61.1867C1.1951 58.8255 2.39896 57.3848 4.64618 57.2648C7.01377 57.1447 8.53867 58.5854 8.65905 61.1467C7.77622 61.4268 7.01377 61.827 6.61248 60.3463C6.25133 59.1857 4.96721 58.7055 4.04424 59.4258C3.48244 59.866 3.0009 61.4668 3.32193 61.907C4.24489 63.1076 5.48888 64.1081 6.773 64.9886C8.93995 66.4693 9.94317 68.8304 8.73931 70.9115C8.17751 71.8719 7.09403 72.5122 6.2112 73.2726C5.56914 73.3126 4.92708 73.3126 4.24489 73.3126Z" fill="#7B7B7B"/>
<path d="M64.278 39.8559C56.2923 33.2927 50.6342 33.2927 41.6855 39.5358C41.0033 36.4543 41.2842 33.6129 42.488 30.8115C43.1702 29.1707 43.9327 27.5299 44.3741 25.8091C45.2569 22.0072 44.1734 18.8456 40.8428 16.6446C39.3179 15.6041 37.6325 14.7236 36.1477 13.6431C33.3387 11.6021 32.5361 8.44055 33.9406 5.35904C35.305 2.31755 38.7561 0.436628 41.9664 1.197C43.2906 1.51716 44.6951 1.99739 45.8187 2.71775C50.594 5.79926 55.249 5.63918 60.0243 2.63771C62.1913 1.27704 64.599 0.476647 67.2475 1.3971C70.0565 2.39759 71.782 4.31853 72.2636 7.27998C72.7451 10.0413 71.7018 12.2024 69.3743 13.7632C68.2908 14.5235 67.1271 15.1638 66.0035 15.8842C61.1078 18.8857 59.8237 22.9677 61.9906 28.2903C62.8333 30.3713 63.676 32.4523 64.1576 34.6534C64.5589 36.1341 64.278 37.8149 64.278 39.8559ZM49.1093 9.28096C48.1462 9.12088 47.3837 8.92079 46.7818 10.2414C45.9792 12.0423 44.0531 12.0023 43.09 10.2414C42.4479 9.08086 41.7657 9.00082 40.7224 9.40102C40.8026 11.9623 42.488 13.6831 44.8556 13.7231C47.4239 13.7231 49.029 12.0823 49.1093 9.28096ZM65.0003 9.44104C64.8398 9.24094 64.6792 9.04084 64.5187 8.88076C63.9168 9.361 63.1945 9.72118 62.7531 10.2815C61.5492 11.8822 59.8638 12.0023 58.9408 10.2414C58.2988 9.00082 57.6166 9.04084 56.6134 9.40102C56.6535 12.0023 58.3389 13.7231 60.7868 13.7231C63.2747 13.6831 64.9601 11.9623 65.0003 9.44104ZM53.2425 27.8501C54.326 28.6104 55.0082 29.4508 55.57 29.3708C56.172 29.2908 57.0147 28.3703 57.0548 27.77C57.0949 27.2898 56.0917 26.3693 55.5299 26.3293C54.928 26.2893 54.2859 27.1297 53.2425 27.8501ZM50.273 25.4889C49.4704 26.5694 48.6277 27.2097 48.6679 27.77C48.7481 28.3703 49.5908 28.9306 50.1125 29.4909C50.6743 28.9706 51.5973 28.4904 51.7177 27.8901C51.838 27.3298 51.0355 26.6495 50.273 25.4889Z" fill="#7B7B7B"/>
<path d="M52.7611 48.2216C48.9087 48.1015 45.7386 46.5008 43.3308 43.2992C42.6888 42.4188 42.769 41.8985 43.4512 41.0981C48.1062 35.7355 57.3358 35.6955 62.1111 40.9781C62.8736 41.8185 62.9538 42.4588 62.2716 43.3792C59.9442 46.4607 56.8141 48.0615 52.7611 48.2216Z" fill="#7B7B7B"/>
<path d="M39.3179 72.7129C37.1108 73.4333 37.2713 71.9125 37.1108 70.7119C36.9503 69.4713 36.7898 68.2707 36.228 67.0301C36.0675 68.4708 35.8668 69.8715 35.7465 71.3122C35.6662 72.6329 35.1445 73.3132 33.5795 72.7529C32.9374 67.7905 32.3355 62.788 31.6533 57.6255C32.4559 57.6255 33.0177 57.6255 33.6196 57.6255C33.8604 59.3864 34.061 61.0672 34.3018 62.788C34.4222 62.788 34.5426 62.8281 34.7031 62.8281C34.9037 61.4674 35.1846 60.1467 35.305 58.7861C35.4254 57.4654 36.1477 57.3454 37.2713 57.6655C37.5522 59.4264 37.8733 61.1472 38.1542 62.9081C38.2746 62.9081 38.3949 62.9081 38.5153 62.9081C38.7561 61.1873 38.9568 59.5064 39.1975 57.6655C39.7593 57.6255 40.3211 57.6255 41.1638 57.5855C40.5619 62.668 39.9198 67.7105 39.3179 72.7129Z" fill="#7B7B7B"/>
<path d="M55.0876 72.6728C53.2818 72.8729 53.2818 72.8729 52.1582 67.5903C51.9977 68.3907 51.8773 69.2311 51.7168 70.0315C51.5562 70.9519 51.3957 71.8324 51.2352 72.7528C49.2689 73.4332 49.309 72.0325 49.1084 70.8719C48.9479 69.7914 48.8275 68.6708 48.3058 67.5903C48.1453 68.8309 47.8243 70.0715 47.8243 71.3521C47.7841 72.8329 47.1822 73.193 45.6172 72.7528C46.2592 67.7104 46.9013 62.6679 47.5434 57.6654C49.7504 56.9851 49.5899 58.5459 49.7504 59.7064C49.911 60.947 50.0715 62.1476 50.5932 63.3882C50.7537 61.9475 50.9944 60.5468 51.1148 59.1061C51.1951 57.7455 51.7569 57.1452 53.2818 57.6654C53.8436 62.5878 54.4856 67.5503 55.0876 72.6728Z" fill="#7B7B7B"/>
<path d="M19.2534 57.624C19.2534 62.7065 19.2534 67.709 19.2534 72.7114C17.8489 73.2717 17.1265 72.8315 16.645 71.4708C15.9227 69.2697 14.9997 67.1087 14.157 64.9076C13.9965 64.9476 13.7959 64.9876 13.6353 64.9876C13.6353 67.0687 13.6755 69.1497 13.6353 71.2307C13.5952 72.8715 13.5952 72.8715 11.6289 72.7114C11.6289 67.709 11.6289 62.7065 11.6289 57.624C12.913 57.0638 13.6353 57.4639 14.0768 58.8246C14.8793 61.2658 15.8023 63.627 16.645 66.0281C16.8456 66.0281 17.0062 65.9881 17.2068 65.9881C17.2068 63.667 17.2469 61.3859 17.2068 59.0647C17.1667 57.7441 17.6081 57.1438 19.2534 57.624Z" fill="#7B7B7B"/>
<path d="M74.8321 57.6247C74.8321 62.7072 74.8321 67.7097 74.8321 72.6721C73.3474 73.3124 72.7053 72.6721 72.2639 71.3915C71.5014 69.1504 70.6186 66.9493 69.4549 64.7082C69.4549 67.3095 69.4549 69.9508 69.4549 72.7121C68.6523 72.7922 68.1306 72.8322 67.3682 72.9122C67.3682 67.7097 67.3682 62.6672 67.3682 57.6247C68.6924 57.0645 69.3345 57.5447 69.7358 58.8253C70.5785 61.3466 71.5416 63.8678 72.4645 66.349C72.625 66.309 72.8257 66.269 72.9862 66.269C72.9862 63.7878 73.0263 61.3466 72.9862 58.8653C72.9461 57.6247 73.4276 57.2245 74.8321 57.6247Z" fill="#7B7B7B"/>
<path d="M85.5463 72.712C84.0616 73.2323 83.3393 72.8321 82.8577 71.5915C82.0953 69.6305 81.1723 67.7096 80.0888 65.2284C78.6843 67.9497 79.6875 70.3909 79.1257 72.752C78.0021 73.1522 77.3199 72.9922 77.3601 71.5114C77.4002 67.2694 77.4002 63.0273 77.3601 58.7852C77.3601 57.3845 78.0423 57.2645 79.2863 57.7047C79.2863 59.1454 79.2863 60.6661 79.2863 62.2269C81.6539 61.1063 81.2927 57.1044 85.0648 57.5046C84.1418 58.9853 83.4195 60.3059 82.5367 61.5065C81.6539 62.7071 81.5736 63.7876 82.2157 65.1483C83.4195 67.5895 84.4227 70.1108 85.5463 72.712Z" fill="#7B7B7B"/>
<path d="M87.7529 57.4631C89.7192 57.4631 91.5652 57.4231 93.4111 57.5032C93.7321 57.5032 94.0532 58.1034 94.3742 58.4236C94.0532 58.7037 93.7321 59.224 93.371 59.264C92.2072 59.3841 91.0034 59.304 89.7192 59.304C89.7192 60.9849 89.7192 62.3855 89.7192 64.0264C90.7225 64.0664 91.6454 64.0263 92.5283 64.1864C92.9697 64.2665 93.371 64.7067 93.7723 65.0268C93.371 65.347 93.0098 65.8672 92.5684 65.9473C91.6856 66.1074 90.7626 65.9873 89.7192 65.9873C89.7192 67.7882 89.7192 69.3089 89.7192 70.7096C91.1237 72.0303 93.8124 69.7091 94.7353 72.8307C92.2474 72.8307 90.0804 72.8307 87.7529 72.8307C87.7529 67.7082 87.7529 62.6657 87.7529 57.4631Z" fill="#7B7B7B"/>
<path d="M99.3099 72.6313C100.313 67.2686 98.5475 62.3862 96.0996 57.4238C99.952 57.4238 98.708 60.9856 100.474 62.3062C102.199 61.2257 101.076 57.5839 104.727 57.3838C104.085 59.0246 103.684 60.3853 103.042 61.6259C101.477 64.6674 101.196 67.909 101.397 71.2306C101.477 72.4312 101.236 73.2716 99.3099 72.6313Z" fill="#7B7B7B"/>
</g>
<defs>
<clipPath id="clip0_833_1670">
<rect width="103.773" height="72.3555" fill="white" transform="translate(0.954102 0.957031)"/>
</clipPath>
</defs>
</svg>
