<svg width="72" height="84" viewBox="0 0 72 84" fill="none" xmlns="http://www.w3.org/2000/svg">
<g clip-path="url(#clip0_712_1410)">
<path d="M71.232 42.0359C71.232 42.0359 55.535 60.7055 36.2044 60.7055C16.8738 60.7055 1.17676 42.0359 1.17676 42.0359C1.17676 42.0359 16.8738 23.2939 36.2044 23.2939C55.535 23.2939 71.232 42.0359 71.232 42.0359Z" stroke="white" stroke-miterlimit="10"/>
<path d="M36.2041 56.581C44.2713 56.581 50.8111 50.069 50.8111 42.0361C50.8111 34.0032 44.2713 27.4912 36.2041 27.4912C28.1369 27.4912 21.5972 34.0032 21.5972 42.0361C21.5972 50.069 28.1369 56.581 36.2041 56.581Z" stroke="white" stroke-miterlimit="10"/>
<path d="M36.2043 47.8251C39.4152 47.8251 42.0181 45.2333 42.0181 42.0361C42.0181 38.8389 39.4152 36.2471 36.2043 36.2471C32.9935 36.2471 30.3906 38.8389 30.3906 42.0361C30.3906 45.2333 32.9935 47.8251 36.2043 47.8251Z" stroke="white" stroke-miterlimit="10"/>
<path d="M36.2041 23.2942V0.5" stroke="white" stroke-miterlimit="10"/>
<path d="M44.7798 24.0177L48.5587 10.124" stroke="white" stroke-miterlimit="10"/>
<path d="M20.6528 27.057L9.46143 7.88086" stroke="white" stroke-miterlimit="10"/>
<path d="M51.7559 27.057L62.8746 7.88086" stroke="white" stroke-miterlimit="10"/>
<path d="M27.5563 24.0177L23.8501 10.124" stroke="white" stroke-miterlimit="10"/>
<path d="M36.2041 60.7061V83.5003" stroke="white" stroke-miterlimit="10"/>
<path d="M44.7798 60.0547L48.5587 73.876" stroke="white" stroke-miterlimit="10"/>
<path d="M20.6528 56.9434L9.46143 76.1195" stroke="white" stroke-miterlimit="10"/>
<path d="M51.7559 56.9434L62.8746 76.1195" stroke="white" stroke-miterlimit="10"/>
<path d="M27.5563 60.0547L23.8501 73.876" stroke="white" stroke-miterlimit="10"/>
</g>
<defs>
<clipPath id="clip0_712_1410">
<rect width="71" height="83" fill="white" transform="translate(0.667969 0.5)"/>
</clipPath>
</defs>
</svg>
