<svg width="108" height="46" viewBox="0 0 108 46" fill="none" xmlns="http://www.w3.org/2000/svg">
<g clip-path="url(#clip0_833_1668)">
<path d="M7.99585 18.3146C7.99585 17.141 8.93283 16.7009 10.5153 16.7009C13.0719 16.7583 15.5806 17.411 17.8446 18.608V11.6083C15.513 10.6758 13.0241 10.2061 10.5153 10.2252C4.49779 10.2252 0.5 13.3897 0.5 18.6709C0.5 26.8861 11.7438 25.5867 11.7438 29.1285C11.7438 30.5117 10.5778 30.9518 8.91201 30.9518C6.45504 30.9518 3.31094 29.9458 0.833149 28.5626V35.6671C3.38676 36.7693 6.13356 37.3464 8.91201 37.3646C15.0753 37.3646 19.3021 34.2839 19.3021 28.9608C19.2813 20.075 7.99585 21.6468 7.99585 18.3146ZM28.0056 4.27335L20.7804 5.82418V29.6943C20.7804 34.1163 24.0703 37.3646 28.4429 37.3646C30.879 37.3646 32.6489 36.9036 33.6275 36.3797V30.323C32.6905 30.7003 28.0056 32.0834 28.0056 27.6615V17.0991H33.6275V10.7491H27.9848L28.0056 4.27335ZM42.8099 12.9496L42.3518 10.7491H35.9387V36.8198H43.3513V19.1529C45.1003 16.8476 48.057 17.2668 48.9732 17.6021V10.7491C48.0362 10.3928 44.5589 9.7222 42.8099 12.9496ZM50.7846 10.7491H58.218V36.8198H50.7846V10.7491ZM50.7846 8.48573L58.218 6.87204V0.81543L50.7846 2.38721V8.48573ZM73.6678 10.2252C71.5123 10.2195 69.4382 11.053 67.8793 12.5514L67.4837 10.7072H60.9665V45.4541L68.3791 43.8823V35.4575C69.441 36.233 71.0234 37.3227 73.6262 37.3227C78.9149 37.3227 83.7456 33.0265 83.7456 23.5958C83.7456 14.9405 78.8524 10.2252 73.6678 10.2252ZM71.898 30.7631C70.1489 30.7631 69.1078 30.1344 68.3999 29.359V18.3146C69.1703 17.4554 70.2322 16.8476 71.9188 16.8476C74.6048 16.8476 76.4788 19.8864 76.4788 23.8054C76.4788 27.7244 74.6256 30.7631 71.898 30.7631ZM107.108 23.8892C107.108 16.2608 103.443 10.2252 96.426 10.2252C89.4091 10.2252 85.099 16.2608 85.099 23.8263C85.099 32.796 90.1379 37.3227 97.363 37.3227C100.882 37.3227 103.547 36.5264 105.567 35.3947V29.4219C103.547 30.4488 101.236 31.0775 98.3208 31.0775C95.4058 31.0775 92.8863 30.0506 92.574 26.5298H107.045C107.045 26.1526 107.108 24.6018 107.108 23.8892ZM92.4699 21.06C92.4699 17.6859 94.5312 16.2818 96.3844 16.2818C98.2375 16.2818 100.111 17.6859 100.111 21.06H92.4699Z" fill="#7B7B7B"/>
</g>
<defs>
<clipPath id="clip0_833_1668">
<rect width="106.608" height="44.6387" fill="white" transform="translate(0.5 0.81543)"/>
</clipPath>
</defs>
</svg>
