<svg width="175" height="30" viewBox="0 0 175 30" fill="none" xmlns="http://www.w3.org/2000/svg">
<g clip-path="url(#clip0_833_1685)">
<path d="M41.352 1.50699H34.665C34.4796 1.50772 34.2992 1.56716 34.1499 1.67673C34.0006 1.78629 33.8902 1.9403 33.8346 2.1165L29.6825 15.9609L25.0496 2.02942C24.9869 1.86592 24.8804 1.72267 24.7417 1.61521C24.603 1.50776 24.4374 1.44022 24.2629 1.41992H18.6248C18.4507 1.42018 18.281 1.47496 18.1398 1.57653C17.9987 1.67809 17.8931 1.8213 17.8381 1.98589L13.2053 15.9609L9.05318 2.1165C8.99756 1.9403 8.88713 1.78629 8.73785 1.67673C8.58857 1.56716 8.40819 1.50772 8.22277 1.50699H1.3172C1.19815 1.50524 1.08043 1.53201 0.973947 1.58505C0.867462 1.63808 0.775329 1.71583 0.70531 1.81174C0.576457 2.00351 0.529297 2.23839 0.574192 2.46478L9.1843 28.2816C9.25682 28.4344 9.36699 28.5664 9.50455 28.6654C9.64211 28.7643 9.80258 28.827 9.97101 28.8475H15.6965C15.8667 28.8523 16.0334 28.7986 16.1686 28.6956C16.3039 28.5926 16.3995 28.4464 16.4395 28.2816L21.3346 14.3065L26.186 28.2816C26.2585 28.4344 26.3687 28.5664 26.5062 28.6654C26.6438 28.7643 26.8043 28.827 26.9727 28.8475H32.6982C32.8684 28.8523 33.0351 28.7986 33.1703 28.6956C33.3056 28.5926 33.4012 28.4464 33.4412 28.2816L42.0513 2.46478C42.0954 2.35499 42.1065 2.2348 42.0832 2.11885C42.0599 2.0029 42.0033 1.89619 41.9202 1.81174C41.8546 1.72166 41.7694 1.64748 41.6711 1.59472C41.5727 1.54196 41.4636 1.51197 41.352 1.50699Z" fill="#7B7B7B"/>
<path d="M58.0915 0.986328C49.8311 0.986328 43.4062 7.21196 43.4062 15.179C43.4062 23.1461 49.8311 29.2847 58.0041 29.2847C66.1772 29.2847 72.6894 23.059 72.6894 15.092C72.6894 7.12489 66.2646 0.986328 58.0915 0.986328ZM64.4289 15.179C64.4726 19.0537 61.6754 21.9706 58.0915 21.9706C54.5076 21.9706 51.623 19.0102 51.623 15.092C51.623 11.1737 54.3328 8.34389 58.0041 8.34389C61.6754 8.34389 64.4726 11.2608 64.4726 15.179H64.4289Z" fill="#7B7B7B"/>
<path d="M102.235 1.42097H95.0232C94.8445 1.42452 94.6707 1.47997 94.5232 1.58051C94.3757 1.68105 94.2608 1.82231 94.1928 1.98694L88.5547 17.4857L82.9166 1.98694C82.8536 1.81888 82.74 1.67431 82.5913 1.57301C82.4427 1.4717 82.2663 1.4186 82.0862 1.42097H74.6998C74.5882 1.42595 74.4792 1.45593 74.3808 1.5087C74.2824 1.56146 74.1973 1.63564 74.1317 1.72572C74.0597 1.83436 74.0177 1.95999 74.0101 2.08994C74.0024 2.21988 74.0293 2.34954 74.088 2.46583L84.5774 28.3262C84.6257 28.4829 84.7248 28.6193 84.8593 28.7138C84.9938 28.8084 85.156 28.8558 85.3204 28.8486H91.5267C91.6943 28.8458 91.8576 28.7951 91.9971 28.7025C92.1366 28.6098 92.2464 28.4792 92.3134 28.3262L102.803 2.46583C102.841 2.35975 102.856 2.24712 102.849 2.13483C102.841 2.02254 102.811 1.91296 102.759 1.81279C102.628 1.55158 102.497 1.42097 102.235 1.42097Z" fill="#7B7B7B"/>
<path d="M132.392 1.4209H125.705C125.531 1.43239 125.364 1.49278 125.224 1.59504C125.164 1.65912 125.118 1.73454 125.087 1.8168C125.057 1.89907 125.044 1.98652 125.049 2.07394V15.0476L114.865 1.72565C114.783 1.63326 114.682 1.5586 114.569 1.50622C114.456 1.45383 114.334 1.4248 114.21 1.4209H107.872C107.699 1.4209 107.532 1.4897 107.409 1.61217C107.286 1.73464 107.217 1.90074 107.217 2.07394V28.1955C107.228 28.3684 107.289 28.5345 107.392 28.6744C107.532 28.7766 107.699 28.837 107.872 28.8485H114.603C114.777 28.837 114.943 28.7766 115.084 28.6744C115.144 28.6103 115.19 28.5349 115.22 28.4526C115.25 28.3703 115.263 28.2829 115.259 28.1955V14.6993L125.792 28.5438C125.875 28.6361 125.976 28.7108 126.088 28.7632C126.201 28.8156 126.323 28.8446 126.448 28.8485H132.348C132.522 28.8485 132.688 28.7797 132.811 28.6572C132.934 28.5348 133.003 28.3687 133.003 28.1955V2.07394C133.004 1.90803 132.941 1.7482 132.827 1.62691C132.713 1.50562 132.558 1.43196 132.392 1.4209Z" fill="#7B7B7B"/>
<path d="M141.746 28.8498C144.159 28.8498 146.116 26.9006 146.116 24.4962C146.116 22.0917 144.159 20.1426 141.746 20.1426C139.332 20.1426 137.375 22.0917 137.375 24.4962C137.375 26.9006 139.332 28.8498 141.746 28.8498Z" fill="#7B7B7B"/>
<path d="M151.011 14.0459H155.207C155.348 14.0488 155.485 14.0944 155.6 14.1765C155.682 14.2909 155.728 14.4275 155.731 14.5683V27.8903C155.734 27.9541 155.723 28.0178 155.701 28.0776C155.678 28.1375 155.644 28.1922 155.6 28.2386C155.551 28.2937 155.49 28.3377 155.422 28.3677C155.354 28.3977 155.281 28.4131 155.207 28.4127H151.011C150.947 28.4153 150.883 28.4051 150.823 28.3826C150.763 28.3602 150.708 28.326 150.661 28.2821C150.606 28.2329 150.562 28.1725 150.532 28.1049C150.501 28.0374 150.486 27.9642 150.486 27.8903V14.5683C150.486 14.4997 150.5 14.4318 150.526 14.3684C150.553 14.305 150.591 14.2474 150.64 14.1989C150.689 14.1504 150.746 14.1119 150.81 14.0857C150.874 14.0594 150.942 14.0459 151.011 14.0459Z" fill="#7B7B7B"/>
<path d="M166.439 13.6123C164.41 13.6123 162.465 14.415 161.03 15.8438C159.596 17.2726 158.79 19.2105 158.79 21.2311C158.79 23.2517 159.596 25.1896 161.03 26.6184C162.465 28.0472 164.41 28.8499 166.439 28.8499C168.467 28.8499 170.413 28.0472 171.847 26.6184C173.281 25.1896 174.087 23.2517 174.087 21.2311C174.087 19.2105 173.281 17.2726 171.847 15.8438C170.413 14.415 168.467 13.6123 166.439 13.6123ZM166.439 24.4092C165.592 24.4092 164.781 24.0744 164.183 23.4784C163.584 22.8823 163.248 22.074 163.248 21.2311C163.248 20.8137 163.331 20.4005 163.491 20.0149C163.651 19.6293 163.886 19.2789 164.183 18.9838C164.479 18.6887 164.831 18.4546 165.218 18.2949C165.605 18.1352 166.02 18.053 166.439 18.053C166.858 18.053 167.272 18.1352 167.66 18.2949C168.047 18.4546 168.398 18.6887 168.695 18.9838C168.991 19.2789 169.226 19.6293 169.386 20.0149C169.547 20.4005 169.629 20.8137 169.629 21.2311C169.629 21.6484 169.547 22.0617 169.386 22.4473C169.226 22.8329 168.991 23.1832 168.695 23.4784C168.398 23.7735 168.047 24.0076 167.66 24.1673C167.272 24.327 166.858 24.4092 166.439 24.4092Z" fill="#7B7B7B"/>
</g>
<defs>
<clipPath id="clip0_833_1685">
<rect width="173.513" height="28.2983" fill="white" transform="translate(0.574219 0.986328)"/>
</clipPath>
</defs>
</svg>
